<mxfile host="app.diagrams.net" modified="2023-05-07T06:13:12.914Z" agent="Mozilla/5.0 (Windows NT 10.0; WOW64) AppleWebKit/537.36 (KHTML, like Gecko) Chrome/94.0.4606.71 Safari/537.36 Core/1.94.192.400 QQBrowser/11.5.5250.400" etag="fh4uCEH_YYlNtMGQXmgY" version="21.2.1" type="github">
  <diagram name="第 1 页" id="2UDp8TqB2WNh8GvecXw_">
    <mxGraphModel dx="843" dy="443" grid="1" gridSize="10" guides="1" tooltips="1" connect="1" arrows="1" fold="1" page="1" pageScale="1" pageWidth="827" pageHeight="1169" math="0" shadow="0">
      <root>
        <mxCell id="0" />
        <mxCell id="1" parent="0" />
        <mxCell id="yaaFNcHA5ti1ifffjErC-1" value="Linear + ReLu" style="rounded=0;whiteSpace=wrap;html=1;fillColor=#dae8fc;strokeColor=#6c8ebf;" vertex="1" parent="1">
          <mxGeometry x="120" y="430" width="110" height="30" as="geometry" />
        </mxCell>
        <mxCell id="yaaFNcHA5ti1ifffjErC-2" value="Linear + ReLu" style="rounded=0;whiteSpace=wrap;html=1;fillColor=#fff2cc;strokeColor=#d6b656;" vertex="1" parent="1">
          <mxGeometry x="410" y="430" width="110" height="30" as="geometry" />
        </mxCell>
        <mxCell id="yaaFNcHA5ti1ifffjErC-3" value="Linear + ReLu" style="rounded=0;whiteSpace=wrap;html=1;fillColor=#7EA6E0;strokeColor=#6c8ebf;" vertex="1" parent="1">
          <mxGeometry x="250" y="430" width="110" height="30" as="geometry" />
        </mxCell>
        <mxCell id="yaaFNcHA5ti1ifffjErC-4" value="Linear + ReLu" style="rounded=0;whiteSpace=wrap;html=1;fillColor=#FFD966;strokeColor=#d6b656;" vertex="1" parent="1">
          <mxGeometry x="540" y="430" width="110" height="30" as="geometry" />
        </mxCell>
        <mxCell id="yaaFNcHA5ti1ifffjErC-5" value="&lt;font style=&quot;font-size: 15px;&quot;&gt;Item embedding&lt;/font&gt;" style="rounded=0;whiteSpace=wrap;html=1;" vertex="1" parent="1">
          <mxGeometry x="120" y="480" width="240" height="30" as="geometry" />
        </mxCell>
        <mxCell id="yaaFNcHA5ti1ifffjErC-6" value="&lt;font style=&quot;font-size: 15px;&quot;&gt;User embedding&lt;/font&gt;" style="rounded=0;whiteSpace=wrap;html=1;" vertex="1" parent="1">
          <mxGeometry x="410" y="480" width="240" height="30" as="geometry" />
        </mxCell>
        <mxCell id="yaaFNcHA5ti1ifffjErC-7" value="" style="endArrow=none;html=1;rounded=0;endFill=0;" edge="1" parent="1">
          <mxGeometry width="50" height="50" relative="1" as="geometry">
            <mxPoint x="209.8" y="480" as="sourcePoint" />
            <mxPoint x="209.8" y="460" as="targetPoint" />
          </mxGeometry>
        </mxCell>
        <mxCell id="yaaFNcHA5ti1ifffjErC-8" value="" style="endArrow=none;html=1;rounded=0;endFill=0;" edge="1" parent="1">
          <mxGeometry width="50" height="50" relative="1" as="geometry">
            <mxPoint x="280" y="480" as="sourcePoint" />
            <mxPoint x="280" y="460" as="targetPoint" />
          </mxGeometry>
        </mxCell>
        <mxCell id="yaaFNcHA5ti1ifffjErC-9" value="" style="endArrow=none;html=1;rounded=0;endFill=0;" edge="1" parent="1">
          <mxGeometry width="50" height="50" relative="1" as="geometry">
            <mxPoint x="499.86" y="480" as="sourcePoint" />
            <mxPoint x="500.06" y="460" as="targetPoint" />
          </mxGeometry>
        </mxCell>
        <mxCell id="yaaFNcHA5ti1ifffjErC-10" value="" style="endArrow=none;html=1;rounded=0;endFill=0;" edge="1" parent="1">
          <mxGeometry width="50" height="50" relative="1" as="geometry">
            <mxPoint x="559.8599999999999" y="480" as="sourcePoint" />
            <mxPoint x="560.06" y="460" as="targetPoint" />
          </mxGeometry>
        </mxCell>
        <mxCell id="yaaFNcHA5ti1ifffjErC-11" value="L + R" style="rounded=0;whiteSpace=wrap;html=1;fillColor=#dae8fc;strokeColor=#6c8ebf;" vertex="1" parent="1">
          <mxGeometry x="150" y="380" width="80" height="30" as="geometry" />
        </mxCell>
        <mxCell id="yaaFNcHA5ti1ifffjErC-12" value="L + R" style="rounded=0;whiteSpace=wrap;html=1;fillColor=#fff2cc;strokeColor=#d6b656;" vertex="1" parent="1">
          <mxGeometry x="440" y="380" width="80" height="30" as="geometry" />
        </mxCell>
        <mxCell id="yaaFNcHA5ti1ifffjErC-13" value="L + R" style="rounded=0;whiteSpace=wrap;html=1;fillColor=#7EA6E0;strokeColor=#6c8ebf;" vertex="1" parent="1">
          <mxGeometry x="250" y="380" width="80" height="30" as="geometry" />
        </mxCell>
        <mxCell id="yaaFNcHA5ti1ifffjErC-14" value="L + R" style="rounded=0;whiteSpace=wrap;html=1;fillColor=#FFD966;strokeColor=#d6b656;" vertex="1" parent="1">
          <mxGeometry x="540" y="380" width="80" height="30" as="geometry" />
        </mxCell>
        <mxCell id="yaaFNcHA5ti1ifffjErC-15" value="" style="endArrow=none;html=1;rounded=0;endFill=0;" edge="1" parent="1">
          <mxGeometry width="50" height="50" relative="1" as="geometry">
            <mxPoint x="209.8" y="430" as="sourcePoint" />
            <mxPoint x="209.94" y="410" as="targetPoint" />
          </mxGeometry>
        </mxCell>
        <mxCell id="yaaFNcHA5ti1ifffjErC-16" value="" style="endArrow=none;html=1;rounded=0;endFill=0;" edge="1" parent="1">
          <mxGeometry width="50" height="50" relative="1" as="geometry">
            <mxPoint x="280" y="430" as="sourcePoint" />
            <mxPoint x="280.14" y="410" as="targetPoint" />
          </mxGeometry>
        </mxCell>
        <mxCell id="yaaFNcHA5ti1ifffjErC-17" value="" style="endArrow=none;html=1;rounded=0;endFill=0;" edge="1" parent="1">
          <mxGeometry width="50" height="50" relative="1" as="geometry">
            <mxPoint x="499.86" y="430" as="sourcePoint" />
            <mxPoint x="500" y="410" as="targetPoint" />
          </mxGeometry>
        </mxCell>
        <mxCell id="yaaFNcHA5ti1ifffjErC-18" value="" style="endArrow=none;html=1;rounded=0;endFill=0;" edge="1" parent="1">
          <mxGeometry width="50" height="50" relative="1" as="geometry">
            <mxPoint x="559.8599999999999" y="430" as="sourcePoint" />
            <mxPoint x="560" y="410" as="targetPoint" />
          </mxGeometry>
        </mxCell>
        <mxCell id="yaaFNcHA5ti1ifffjErC-19" value="L + R" style="rounded=0;whiteSpace=wrap;html=1;fillColor=#dae8fc;strokeColor=#6c8ebf;" vertex="1" parent="1">
          <mxGeometry x="170" y="330" width="60" height="30" as="geometry" />
        </mxCell>
        <mxCell id="yaaFNcHA5ti1ifffjErC-20" value="L + R" style="rounded=0;whiteSpace=wrap;html=1;fillColor=#7EA6E0;strokeColor=#6c8ebf;" vertex="1" parent="1">
          <mxGeometry x="250" y="330" width="60" height="30" as="geometry" />
        </mxCell>
        <mxCell id="yaaFNcHA5ti1ifffjErC-21" value="" style="endArrow=none;html=1;rounded=0;endFill=0;" edge="1" parent="1">
          <mxGeometry width="50" height="50" relative="1" as="geometry">
            <mxPoint x="209.52" y="380" as="sourcePoint" />
            <mxPoint x="209.66" y="360" as="targetPoint" />
          </mxGeometry>
        </mxCell>
        <mxCell id="yaaFNcHA5ti1ifffjErC-22" value="" style="endArrow=none;html=1;rounded=0;endFill=0;" edge="1" parent="1">
          <mxGeometry width="50" height="50" relative="1" as="geometry">
            <mxPoint x="280" y="380" as="sourcePoint" />
            <mxPoint x="280.14" y="360" as="targetPoint" />
          </mxGeometry>
        </mxCell>
        <mxCell id="yaaFNcHA5ti1ifffjErC-23" value="" style="endArrow=none;html=1;rounded=0;endFill=0;" edge="1" parent="1">
          <mxGeometry width="50" height="50" relative="1" as="geometry">
            <mxPoint x="499.86" y="380" as="sourcePoint" />
            <mxPoint x="500" y="360" as="targetPoint" />
          </mxGeometry>
        </mxCell>
        <mxCell id="yaaFNcHA5ti1ifffjErC-24" value="" style="endArrow=none;html=1;rounded=0;endFill=0;" edge="1" parent="1">
          <mxGeometry width="50" height="50" relative="1" as="geometry">
            <mxPoint x="559.8599999999999" y="380" as="sourcePoint" />
            <mxPoint x="560" y="360" as="targetPoint" />
          </mxGeometry>
        </mxCell>
        <mxCell id="yaaFNcHA5ti1ifffjErC-25" value="dot product for CTR" style="rounded=1;whiteSpace=wrap;html=1;" vertex="1" parent="1">
          <mxGeometry x="80" y="290" width="70" height="30" as="geometry" />
        </mxCell>
        <mxCell id="yaaFNcHA5ti1ifffjErC-26" value="dot product for Final Score" style="rounded=1;whiteSpace=wrap;html=1;" vertex="1" parent="1">
          <mxGeometry x="340" y="240" width="90" height="30" as="geometry" />
        </mxCell>
        <mxCell id="yaaFNcHA5ti1ifffjErC-27" value="concat&amp;nbsp; &amp;nbsp; &amp;nbsp; &amp;nbsp; &amp;nbsp; &amp;nbsp; &amp;nbsp; &amp;nbsp; &amp;nbsp; &amp;nbsp; &amp;nbsp; &amp;nbsp; &amp;nbsp; &amp;nbsp; &amp;nbsp; &amp;nbsp; &amp;nbsp; &amp;nbsp; &amp;nbsp; &amp;nbsp;" style="rounded=1;whiteSpace=wrap;html=1;fillColor=none;" vertex="1" parent="1">
          <mxGeometry x="130" y="230" width="180" height="50" as="geometry" />
        </mxCell>
        <mxCell id="yaaFNcHA5ti1ifffjErC-28" value="L + R" style="rounded=0;whiteSpace=wrap;html=1;fillColor=#fff2cc;strokeColor=#d6b656;" vertex="1" parent="1">
          <mxGeometry x="460" y="330" width="60" height="30" as="geometry" />
        </mxCell>
        <mxCell id="yaaFNcHA5ti1ifffjErC-29" value="L + R" style="rounded=0;whiteSpace=wrap;html=1;fillColor=#FFD966;strokeColor=#d6b656;" vertex="1" parent="1">
          <mxGeometry x="540" y="330" width="60" height="30" as="geometry" />
        </mxCell>
        <mxCell id="yaaFNcHA5ti1ifffjErC-30" value="&amp;nbsp; &amp;nbsp; &amp;nbsp; &amp;nbsp; &amp;nbsp; &amp;nbsp; &amp;nbsp; &amp;nbsp; &amp;nbsp; &amp;nbsp; &amp;nbsp; &amp;nbsp; &amp;nbsp; &amp;nbsp; &amp;nbsp; &amp;nbsp; &amp;nbsp; &amp;nbsp; &amp;nbsp; &amp;nbsp; &amp;nbsp;concat&amp;nbsp;" style="rounded=1;whiteSpace=wrap;html=1;fillColor=none;" vertex="1" parent="1">
          <mxGeometry x="460" y="230" width="180" height="50" as="geometry" />
        </mxCell>
        <mxCell id="yaaFNcHA5ti1ifffjErC-31" value="dot product for CTCVR" style="rounded=1;whiteSpace=wrap;html=1;" vertex="1" parent="1">
          <mxGeometry x="620" y="290" width="70" height="30" as="geometry" />
        </mxCell>
        <mxCell id="yaaFNcHA5ti1ifffjErC-32" value="" style="endArrow=classicThin;html=1;rounded=0;exitX=0.5;exitY=0;exitDx=0;exitDy=0;entryX=0;entryY=0.5;entryDx=0;entryDy=0;endFill=1;" edge="1" parent="1" source="yaaFNcHA5ti1ifffjErC-20" target="yaaFNcHA5ti1ifffjErC-31">
          <mxGeometry width="50" height="50" relative="1" as="geometry">
            <mxPoint x="380" y="300" as="sourcePoint" />
            <mxPoint x="430" y="250" as="targetPoint" />
          </mxGeometry>
        </mxCell>
        <mxCell id="yaaFNcHA5ti1ifffjErC-33" value="" style="endArrow=classicThin;html=1;rounded=0;exitX=0.5;exitY=0;exitDx=0;exitDy=0;endFill=1;entryX=0;entryY=0.5;entryDx=0;entryDy=0;" edge="1" parent="1" source="yaaFNcHA5ti1ifffjErC-29" target="yaaFNcHA5ti1ifffjErC-31">
          <mxGeometry width="50" height="50" relative="1" as="geometry">
            <mxPoint x="490" y="300" as="sourcePoint" />
            <mxPoint x="620" y="330" as="targetPoint" />
          </mxGeometry>
        </mxCell>
        <mxCell id="yaaFNcHA5ti1ifffjErC-34" value="" style="endArrow=classicThin;html=1;rounded=0;exitX=0.5;exitY=0;exitDx=0;exitDy=0;endFill=1;entryX=1;entryY=0.5;entryDx=0;entryDy=0;" edge="1" parent="1" source="yaaFNcHA5ti1ifffjErC-19" target="yaaFNcHA5ti1ifffjErC-25">
          <mxGeometry width="50" height="50" relative="1" as="geometry">
            <mxPoint x="160" y="265" as="sourcePoint" />
            <mxPoint x="115" y="320" as="targetPoint" />
          </mxGeometry>
        </mxCell>
        <mxCell id="yaaFNcHA5ti1ifffjErC-35" value="" style="endArrow=classicThin;html=1;rounded=0;entryX=1;entryY=0.5;entryDx=0;entryDy=0;endFill=1;exitX=0.5;exitY=0;exitDx=0;exitDy=0;" edge="1" parent="1" source="yaaFNcHA5ti1ifffjErC-28" target="yaaFNcHA5ti1ifffjErC-25">
          <mxGeometry width="50" height="50" relative="1" as="geometry">
            <mxPoint x="410" y="320" as="sourcePoint" />
            <mxPoint x="270" y="275" as="targetPoint" />
          </mxGeometry>
        </mxCell>
        <mxCell id="yaaFNcHA5ti1ifffjErC-36" value="L + R" style="rounded=0;whiteSpace=wrap;html=1;fillColor=#dae8fc;strokeColor=#6c8ebf;" vertex="1" parent="1">
          <mxGeometry x="180" y="240" width="60" height="30" as="geometry" />
        </mxCell>
        <mxCell id="yaaFNcHA5ti1ifffjErC-37" value="L + R" style="rounded=0;whiteSpace=wrap;html=1;fillColor=#7EA6E0;strokeColor=#6c8ebf;" vertex="1" parent="1">
          <mxGeometry x="240" y="240" width="60" height="30" as="geometry" />
        </mxCell>
        <mxCell id="yaaFNcHA5ti1ifffjErC-38" value="a(L + R)" style="rounded=0;whiteSpace=wrap;html=1;fillColor=#fff2cc;strokeColor=#d6b656;" vertex="1" parent="1">
          <mxGeometry x="470" y="240" width="60" height="30" as="geometry" />
        </mxCell>
        <mxCell id="yaaFNcHA5ti1ifffjErC-39" value="b(L + R)" style="rounded=0;whiteSpace=wrap;html=1;fillColor=#FFD966;strokeColor=#d6b656;" vertex="1" parent="1">
          <mxGeometry x="530" y="240" width="60" height="30" as="geometry" />
        </mxCell>
        <mxCell id="yaaFNcHA5ti1ifffjErC-40" value="" style="endArrow=none;html=1;rounded=0;entryX=0.447;entryY=1.017;entryDx=0;entryDy=0;entryPerimeter=0;endFill=0;" edge="1" parent="1">
          <mxGeometry width="50" height="50" relative="1" as="geometry">
            <mxPoint x="269.83000000000004" y="330" as="sourcePoint" />
            <mxPoint x="269.94" y="281" as="targetPoint" />
          </mxGeometry>
        </mxCell>
        <mxCell id="yaaFNcHA5ti1ifffjErC-41" value="" style="endArrow=none;html=1;rounded=0;entryX=0.447;entryY=1.017;entryDx=0;entryDy=0;entryPerimeter=0;endFill=0;" edge="1" parent="1">
          <mxGeometry width="50" height="50" relative="1" as="geometry">
            <mxPoint x="499.83" y="329" as="sourcePoint" />
            <mxPoint x="499.94" y="280" as="targetPoint" />
          </mxGeometry>
        </mxCell>
        <mxCell id="yaaFNcHA5ti1ifffjErC-42" value="" style="endArrow=none;html=1;rounded=0;entryX=0.447;entryY=1.017;entryDx=0;entryDy=0;entryPerimeter=0;endFill=0;" edge="1" parent="1">
          <mxGeometry width="50" height="50" relative="1" as="geometry">
            <mxPoint x="559.83" y="330" as="sourcePoint" />
            <mxPoint x="559.94" y="281" as="targetPoint" />
          </mxGeometry>
        </mxCell>
        <mxCell id="yaaFNcHA5ti1ifffjErC-43" value="" style="endArrow=none;html=1;rounded=0;entryX=0.447;entryY=1.017;entryDx=0;entryDy=0;entryPerimeter=0;endFill=0;" edge="1" parent="1">
          <mxGeometry width="50" height="50" relative="1" as="geometry">
            <mxPoint x="209.83" y="330" as="sourcePoint" />
            <mxPoint x="209.94" y="281" as="targetPoint" />
          </mxGeometry>
        </mxCell>
        <mxCell id="yaaFNcHA5ti1ifffjErC-44" value="" style="endArrow=classicThin;html=1;rounded=0;entryX=0;entryY=0.5;entryDx=0;entryDy=0;exitX=1;exitY=0.5;exitDx=0;exitDy=0;endFill=1;" edge="1" parent="1" source="yaaFNcHA5ti1ifffjErC-27" target="yaaFNcHA5ti1ifffjErC-26">
          <mxGeometry width="50" height="50" relative="1" as="geometry">
            <mxPoint x="250" y="210" as="sourcePoint" />
            <mxPoint x="305" y="160" as="targetPoint" />
          </mxGeometry>
        </mxCell>
        <mxCell id="yaaFNcHA5ti1ifffjErC-45" value="" style="endArrow=classicThin;html=1;rounded=0;entryX=1;entryY=0.5;entryDx=0;entryDy=0;exitX=0;exitY=0.5;exitDx=0;exitDy=0;endFill=1;" edge="1" parent="1" source="yaaFNcHA5ti1ifffjErC-30" target="yaaFNcHA5ti1ifffjErC-26">
          <mxGeometry width="50" height="50" relative="1" as="geometry">
            <mxPoint x="370" y="290" as="sourcePoint" />
            <mxPoint x="420" y="240" as="targetPoint" />
          </mxGeometry>
        </mxCell>
        <mxCell id="yaaFNcHA5ti1ifffjErC-46" value="" style="endArrow=classic;html=1;rounded=0;exitX=0;exitY=0;exitDx=0;exitDy=0;" edge="1" parent="1">
          <mxGeometry width="50" height="50" relative="1" as="geometry">
            <mxPoint x="240" y="230" as="sourcePoint" />
            <mxPoint x="240" y="210" as="targetPoint" />
          </mxGeometry>
        </mxCell>
        <mxCell id="yaaFNcHA5ti1ifffjErC-47" value="Item embedding Index" style="rounded=1;whiteSpace=wrap;html=1;" vertex="1" parent="1">
          <mxGeometry x="180" y="160" width="130" height="50" as="geometry" />
        </mxCell>
      </root>
    </mxGraphModel>
  </diagram>
</mxfile>
